<!DOCTYPE svg PUBLIC "-//W3C//DTD SVG 1.1//EN" "http://www.w3.org/Graphics/SVG/1.1/DTD/svg11.dtd">
<svg version="1.1" id="Layer_1" xmlns="http://www.w3.org/2000/svg" xmlns:xlink="http://www.w3.org/1999/xlink" x="0px" y="0px"
	 width="99.208px" height="45px" viewBox="0 0 99.208 51.303" enable-background="new 0 0 99.208 51.303" xml:space="preserve">
<g>
	<path class='svgimage' fill="#3694D1" d="M28.542,32.197c0,1.716,0.945,2.346,1.645,2.346c0.735,0,1.576-0.455,1.891-1.471
		c0.07-0.245,0.105-0.524,0.105-0.805v-2.976C30.642,29.327,28.542,29.817,28.542,32.197z"/>
	<path class='svgimage' fill="#3694D1" d="M73.238,23.552c-1.506,0-2.101,2.205-2.136,3.92h4.061C75.163,25.267,74.603,23.552,73.238,23.552z"/>
	<path class='svgimage' fill="#3694D1" d="M77.415,5.94h-56.08c-10.886,0-19.711,8.825-19.711,19.711c0,10.887,8.825,19.711,19.711,19.711h56.08
		c10.885,0,19.711-8.825,19.711-19.711C97.125,14.765,88.299,5.94,77.415,5.94z M20.249,33.772c0.77,0,1.645-0.175,2.205-0.35
		l0.455,3.851c-0.665,0.314-1.96,0.56-3.57,0.56c-6.021,0-8.891-4.971-8.891-11.656c0-8.891,4.936-12.356,9.521-12.356
		c1.61,0,2.73,0.315,3.186,0.63l-0.77,3.851c-0.525-0.245-1.12-0.455-2.135-0.455c-2.59,0-4.936,2.24-4.936,8.086
		C15.313,31.567,17.448,33.772,20.249,33.772z M32.812,37.623l-0.244-1.68h-0.07c-0.945,1.33-2.275,1.96-3.78,1.96
		c-2.591,0-4.516-2.171-4.516-5.216c0-4.48,3.956-6.336,7.841-6.371v-0.385c0-1.33-0.805-2.311-2.415-2.311
		c-1.365,0-2.485,0.351-3.501,0.98l-0.84-3.08c0.945-0.561,2.94-1.295,5.32-1.295c5.216,0,6.057,3.64,6.057,7.105v6.371
		c0,1.364,0.069,2.765,0.279,3.92H32.812z M52.728,37.623h-4.586V26.912c0-1.471-0.35-2.836-1.68-2.836
		c-0.77,0-1.4,0.525-1.715,1.541c-0.141,0.35-0.245,0.91-0.245,1.575v10.431h-4.585V25.651c0-1.89-0.105-3.535-0.141-5.146h3.955
		l0.211,1.961h0.069c0.91-1.365,2.38-2.24,4.165-2.24c3.256,0,4.551,2.59,4.551,6.405V37.623z M63.333,34.088
		c0.665,0,1.226-0.105,1.715-0.351l0.386,3.605c-0.455,0.21-1.611,0.49-2.906,0.49c-4.34,0-7.176-3.011-7.176-8.61
		c0-5.286,3.115-8.961,7.842-8.961c1.084,0,2.064,0.244,2.52,0.454l-0.595,3.605c-0.386-0.14-0.945-0.314-1.716-0.314
		c-2.205,0-3.5,2.1-3.5,5.075C59.902,32.197,61.197,34.088,63.333,34.088z M79.188,30.692h-8.12c0.069,2.66,1.609,3.641,3.64,3.641
		c1.296,0,2.45-0.28,3.255-0.561l0.631,3.29c-1.19,0.455-2.976,0.771-4.726,0.771c-4.655,0-7.211-3.08-7.211-8.436
		c0-5.741,2.976-9.171,6.86-9.171c3.676,0,5.811,2.905,5.811,8.086C79.328,29.537,79.292,30.202,79.188,30.692z M86.501,37.623
		h-4.585V13.4h4.585V37.623z"/>
</g>
</svg>
