<!-- Generator: Adobe Illustrator 16.0.0, SVG Export Plug-In . SVG Version: 6.00 Build 0)  -->
<!DOCTYPE svg PUBLIC "-//W3C//DTD SVG 1.1//EN" "http://www.w3.org/Graphics/SVG/1.1/DTD/svg11.dtd">
<svg version="1.1" id="Layer_1" xmlns="http://www.w3.org/2000/svg" xmlns:xlink="http://www.w3.org/1999/xlink" x="0px" y="0px"
	 width="130.75px" height="45px" viewBox="0 0 130.75 51.303" enable-background="new 0 0 130.75 51.303" xml:space="preserve">
<path id="Email" fill="#3694D1" class='svgimage ripple' d="M108.997,5.94H39.75c6.159,4.391,10.187,11.588,10.187,19.712c0,8.125-4.028,15.32-10.187,19.71
	h69.247c10.886,0,19.711-8.825,19.711-19.711C128.708,14.765,119.883,5.94,108.997,5.94z M65.532,35.854h-9.759V14.287h9.375v3.647
	h-5.184v4.96h4.928v3.488h-4.928v5.823h5.568V35.854z M86.812,35.854h-4.16V26.64c0-1.792-0.192-3.232-1.472-3.232
	c-0.736,0-1.28,0.512-1.568,1.44c-0.064,0.224-0.128,0.672-0.128,1.088v9.919h-4.16V26.03c0-1.12-0.128-2.624-1.44-2.624
	c-0.64,0-1.28,0.479-1.568,1.408c-0.096,0.288-0.16,0.736-0.16,1.184v9.854h-4.16V24.91c0-1.728-0.096-3.231-0.128-4.704h3.648
	l0.192,1.824h0.064c0.8-1.184,2.112-2.08,3.744-2.08c1.76,0,2.88,0.8,3.424,2.112h0.064c0.384-0.608,0.96-1.184,1.568-1.568
	c0.64-0.352,1.408-0.544,2.208-0.544c2.784,0,4.032,2.208,4.032,5.983V35.854L86.812,35.854z M96.764,35.854l-0.224-1.537h-0.064
	c-0.864,1.217-2.08,1.793-3.456,1.793c-2.368,0-4.128-1.984-4.128-4.769c0-4.096,3.616-5.792,7.167-5.824v-0.352
	c0-1.216-0.736-2.112-2.208-2.112c-1.248,0-2.271,0.32-3.2,0.896l-0.768-2.815c0.864-0.512,2.688-1.184,4.863-1.184
	c4.768,0,5.536,3.328,5.536,6.496v5.823c0,1.248,0.064,2.527,0.256,3.584H96.764z M107.452,35.854h-4.192V20.207h4.192V35.854z
	 M105.244,18.319c-1.152,0-2.112-0.928-2.08-2.272c-0.032-1.408,0.992-2.272,2.144-2.272c1.216,0,2.144,0.864,2.144,2.272
	C107.484,17.391,106.524,18.319,105.244,18.319z M114.588,35.854h-4.192V13.711h4.192V35.854z M96.188,28.237v2.721
	c0,0.256-0.032,0.512-0.096,0.736c-0.288,0.928-1.056,1.344-1.728,1.344c-0.64,0-1.504-0.576-1.504-2.145
	C92.86,28.718,94.78,28.271,96.188,28.237z M25.042,26.354l14.5-8.792v2.886l-14.5,8.788l-14.5-8.787v-2.886L25.042,26.354z
	 M49.437,25.652c0,13.085-10.61,23.699-23.696,23.699c-13.089,0-23.699-10.613-23.699-23.699c0-13.087,10.61-23.7,23.698-23.7
	C38.826,1.952,49.437,12.565,49.437,25.652z M40.042,14.401c0-2.071-1.679-3.75-3.75-3.75h-22.5c-2.071,0-3.75,1.679-3.75,3.75v22.5
	c0,2.07,1.679,3.75,3.75,3.75h22.5c2.071,0,3.75-1.68,3.75-3.75V14.401z"/>
</svg>
