<!-- Generator: Adobe Illustrator 16.0.0, SVG Export Plug-In . SVG Version: 6.00 Build 0)  -->
<!DOCTYPE svg PUBLIC "-//W3C//DTD SVG 1.1//EN" "http://www.w3.org/Graphics/SVG/1.1/DTD/svg11.dtd">
<svg version="1.1" id="Layer_1" xmlns="http://www.w3.org/2000/svg" xmlns:xlink="http://www.w3.org/1999/xlink" x="0px" y="0px"
	 width="182px" height="45px" viewBox="0 0 182 51.303" enable-background="new 0 0 182 51.303" xml:space="preserve">
<path id="MMS" class='svgimage' 	fill="#3694D1" d="M36.116,15.084v16.735c0,0.494-0.401,0.895-0.895,0.895h-12.01l1.474,3.499l-4.304-3.499h-8.209
	c-0.493,0-0.895-0.4-0.895-0.895V15.084c0-0.494,0.401-0.895,0.895-0.895h23.049C35.715,14.189,36.116,14.591,36.116,15.084z
	 M47.395,25.653c0,13.084-10.608,23.696-23.696,23.696C10.611,49.349,0,38.737,0,25.653c0-13.089,10.61-23.7,23.698-23.7
	C36.786,1.953,47.395,12.564,47.395,25.653z M38.072,15.084c0-1.572-1.279-2.851-2.851-2.851H12.173
	c-1.572,0-2.851,1.279-2.851,2.851v16.735c0,1.572,1.279,2.851,2.851,2.851h7.514l9.842,8l-3.371-8h9.063
	c1.572,0,2.851-1.278,2.851-2.851V15.084z M69.36,23.139c-1.333,0-1.86,1.953-1.892,3.473h3.597
	C71.065,24.658,70.569,23.139,69.36,23.139z M161.914,5.94H37.708c6.159,4.391,10.187,11.588,10.187,19.712
	c0,8.125-4.028,15.32-10.187,19.71h124.206c10.886,0,19.711-8.825,19.711-19.711C181.625,14.765,172.8,5.94,161.914,5.94z
	 M59.999,35.603h-4.062V18.457h-3.689v-3.752H63.72v3.752h-3.721V35.603z M74.631,29.464h-7.193
	c0.063,2.355,1.427,3.225,3.225,3.225c1.147,0,2.171-0.248,2.884-0.496l0.558,2.916c-1.054,0.402-2.635,0.682-4.186,0.682
	c-4.124,0-6.387-2.729-6.387-7.473c0-5.085,2.635-8.124,6.077-8.124c3.255,0,5.146,2.573,5.146,7.163
	C74.755,28.44,74.724,29.03,74.631,29.464z M83.032,35.603l-1.023-2.853c-0.279-0.774-0.527-1.55-0.744-2.326h-0.063
	c-0.186,0.775-0.465,1.552-0.682,2.326l-0.931,2.853h-4.062l3.38-7.535l-3.349-7.626h4.402l0.931,2.697
	c0.31,0.899,0.558,1.798,0.744,2.542h0.062c0.217-0.775,0.465-1.706,0.713-2.542l0.899-2.697h4.093l-3.441,7.441l3.504,7.721H83.032
	L83.032,35.603z M96.919,23.325h-2.977v6.915c0,1.767,0.744,2.2,1.55,2.2c0.403,0,0.713-0.03,1.054-0.092l0.031,3.161
	c-0.558,0.155-1.395,0.279-2.48,0.279c-1.178,0-2.201-0.279-2.914-0.961c-0.837-0.808-1.303-1.954-1.303-4.341v-7.163h-1.798v-2.883
	h1.798V17.31l4.062-0.961v4.093h2.977V23.325z M104.265,36.843h-2.636l7.255-22.386h2.667L104.265,36.843z M130.865,35.603
	l-0.372-7.316c-0.093-1.984-0.248-4.682-0.187-6.915h-0.093c-0.372,2.232-0.931,4.806-1.333,6.418l-1.798,7.472h-2.884l-1.736-7.348
	c-0.402-1.674-0.961-4.279-1.271-6.542H121.1c-0.063,2.264-0.187,4.899-0.311,6.978l-0.341,7.254h-3.503l1.519-20.897h4.279
	l1.674,7.565c0.589,2.636,1.116,4.961,1.487,7.317h0.063c0.311-2.324,0.775-4.682,1.333-7.317l1.644-7.565h4.279l1.271,20.897
	H130.865z M150.611,35.603l-0.373-7.316c-0.092-1.984-0.247-4.682-0.186-6.915h-0.093c-0.372,2.232-0.931,4.806-1.333,6.418
	l-1.798,7.472h-2.884l-1.735-7.348c-0.403-1.674-0.961-4.279-1.271-6.542h-0.094c-0.063,2.264-0.187,4.899-0.311,6.978l-0.342,7.254
	h-3.504l1.521-20.897h4.279l1.674,7.565c0.589,2.636,1.116,4.961,1.487,7.317h0.063c0.311-2.324,0.775-4.682,1.333-7.317
	l1.644-7.565h4.278l1.271,20.897H150.611z M160.157,35.789c-1.675,0-3.318-0.435-4-0.837l0.589-3.504
	c0.837,0.465,2.264,0.806,3.441,0.806c1.922,0,2.854-0.991,2.854-2.356c0-1.519-0.93-2.263-2.698-3.41
	c-2.853-1.736-3.938-3.938-3.938-5.829c0-3.349,2.232-6.139,6.604-6.139c1.364,0,2.666,0.372,3.286,0.744l-0.65,3.503
	c-0.59-0.372-1.488-0.713-2.668-0.713c-1.735,0-2.572,1.054-2.572,2.17c0,1.24,0.619,1.891,2.883,3.255
	c2.759,1.675,3.783,3.783,3.783,5.984C167.07,33.276,164.25,35.789,160.157,35.789z"/>
</svg>